<svg id="Layer_1" data-name="Layer 1" xmlns="http://www.w3.org/2000/svg" viewBox="0 0 178 193.5">
  <defs>
    <style>
      .cls-1, .cls-2, .cls-3, .cls-4, .cls-5, .cls-6, .cls-7 {
        fill: none;
        stroke: #ffa400;
        stroke-miterlimit: 10;
      }

      .cls-1 {
        stroke-width: 3.48px;
      }

      .cls-2 {
        stroke-width: 2.17px;
      }

      .cls-3 {
        stroke-width: 1.37px;
      }

      .cls-4 {
        stroke-width: 0.81px;
      }

      .cls-6 {
        stroke-width: 3.26px;
      }

      .cls-7 {
        stroke-width: 4px;
      }
    </style>
  </defs>
  <title>cat-vector-2</title>
  <g>
    <path class="cls-1" d="M146.26,147.68" transform="translate(-49 -50.5)"/>
    <path class="cls-1" d="M146.69,146.37" transform="translate(-49 -50.5)"/>
    <path class="cls-1" d="M147.18,166.41l-6.74,11.67a2.63,2.63,0,0,1-4.56,0l-6.74-11.67a2.64,2.64,0,0,1,2.28-3.95H144.9A2.63,2.63,0,0,1,147.18,166.41Z" transform="translate(-49 -50.5)"/>
    <path class="cls-1" d="M126.69,142.89c0,9-10.15,16.28-22.82,16.52h-.69c-13,0-23.45-7.41-23.45-16.53s10.51-16.52,23.48-16.52h.66C116.54,126.62,126.69,133.93,126.69,142.89Z" transform="translate(-49 -50.5)"/>
    <ellipse class="cls-1" cx="54.21" cy="92.4" rx="12.18" ry="14.78"/>
    <ellipse class="cls-2" cx="53.99" cy="92.72" rx="7.61" ry="9.24"/>
    <ellipse class="cls-3" cx="54.21" cy="92.68" rx="4.78" ry="5.81"/>
    <ellipse class="cls-4" cx="53.99" cy="92.44" rx="2.83" ry="3.43"/>
    <ellipse class="cls-5" cx="53.99" cy="92.82" rx="1.09" ry="1.32"/>
    <path class="cls-1" d="M197.13,142.89c0,9-10.15,16.28-22.82,16.52h-.69c-13,0-23.45-7.41-23.45-16.53s10.52-16.52,23.48-16.52h.66C187,126.62,197.13,133.93,197.13,142.89Z" transform="translate(-49 -50.5)"/>
    <ellipse class="cls-1" cx="124.65" cy="92.4" rx="12.18" ry="14.78"/>
    <ellipse class="cls-2" cx="124.87" cy="92.72" rx="7.61" ry="9.24"/>
    <ellipse class="cls-3" cx="124.65" cy="92.68" rx="4.78" ry="5.81"/>
    <ellipse class="cls-4" cx="124.87" cy="92.44" rx="2.83" ry="3.43"/>
    <ellipse class="cls-5" cx="124.87" cy="92.82" rx="1.09" ry="1.32"/>
    <g>
      <polyline class="cls-1" points="28.05 113.79 68.08 122.06 39.11 146.26"/>
      <line class="cls-1" x1="68.08" y1="122.05" x2="31.7" y2="130.53"/>
    </g>
    <g>
      <polyline class="cls-1" points="152.44 113.79 112.41 122.06 141.39 146.26"/>
      <line class="cls-1" x1="112.41" y1="122.05" x2="148.79" y2="130.53"/>
    </g>
    <path class="cls-6" d="M166.7,194.28a39.31,39.31,0,0,1-2.7,12.1c-2,4.9-5.36,10.11-11.22,13.11A24.57,24.57,0,0,1,141.4,222c-.57,0-1.12,0-1.66,0a28.55,28.55,0,0,1-13.08-3.4,23.59,23.59,0,0,1-10.2-11.93,41.57,41.57,0,0,1-2.81-12.39Z" transform="translate(-49 -50.5)"/>
    <line class="cls-6" x1="68.13" y1="155.88" x2="115.09" y2="155.88"/>
    <line class="cls-6" x1="77.69" y1="143.71" x2="77.69" y2="168.06"/>
    <line class="cls-6" x1="90.74" y1="143.71" x2="90.74" y2="171.54"/>
    <line class="cls-6" x1="103.78" y1="145.45" x2="103.78" y2="169.8"/>
    <path class="cls-7" d="M126.69,142.89c0,9-10.15,16.28-22.82,16.52h-.69c-13,0-23.45-7.41-23.45-16.53s10.51-16.52,23.48-16.52h.66C116.54,126.62,126.69,133.93,126.69,142.89Z" transform="translate(-49 -50.5)"/>
    <path class="cls-7" d="M147.18,166.41l-6.74,11.67a2.63,2.63,0,0,1-4.56,0l-6.74-11.67a2.64,2.64,0,0,1,2.28-3.95H144.9A2.63,2.63,0,0,1,147.18,166.41Z" transform="translate(-49 -50.5)"/>
    <path class="cls-7" d="M166.7,194.28a39.31,39.31,0,0,1-2.7,12.1c-2,4.9-5.36,10.11-11.22,13.11A24.57,24.57,0,0,1,141.4,222c-.57,0-1.12,0-1.66,0a28.55,28.55,0,0,1-13.08-3.4,23.59,23.59,0,0,1-10.2-11.93,41.57,41.57,0,0,1-2.81-12.39Z" transform="translate(-49 -50.5)"/>
    <path class="cls-7" d="M197.13,142.89c0,9-10.15,16.28-22.82,16.52h-.69c-13,0-23.45-7.41-23.45-16.53s10.52-16.52,23.48-16.52h.66C187,126.62,197.13,133.93,197.13,142.89Z" transform="translate(-49 -50.5)"/>
    <path class="cls-7" d="M196.32,54.92,163.15,98h-52L78,54.92,51,155c0,49,39,87,87,87a87,87,0,0,0,87-87Zm-64.9,107.54H144.9a2.63,2.63,0,0,1,2.28,3.95l-6.74,11.67a2.63,2.63,0,0,1-4.56,0l-6.74-11.67A2.64,2.64,0,0,1,131.42,162.46Zm-28.21-3h0c-13,0-23.45-7.41-23.45-16.53s10.51-16.52,23.48-16.52h.66c12.67.24,22.82,7.55,22.82,16.51s-10.15,16.28-22.82,16.52Zm60.79,47c-2,4.9-5.36,10.11-11.22,13.11A24.57,24.57,0,0,1,141.4,222c-.57,0-1.12,0-1.66,0a28.55,28.55,0,0,1-13.08-3.4,23.59,23.59,0,0,1-10.2-11.93,41.57,41.57,0,0,1-2.81-12.39h53A39.31,39.31,0,0,1,164,206.38Zm10.31-47h-.69c-13,0-23.45-7.41-23.45-16.53s10.52-16.52,23.48-16.52h.66c12.67.24,22.82,7.55,22.82,16.51S187,159.17,174.31,159.41Z" transform="translate(-49 -50.5)"/>
  </g>
</svg>
